/* XPM */
static char *XPM_mauer[] = {
  "8 8 6 1",
  "  c #882222",
  "* c #FFFFFF",
  "r c #FF0000",
  "g c #00FF00",
  "b c #0000FF",
  "y c #00FFFF",
  "r******g",
  "*rr**gg*",
  "*rr**gg*",
  "********",
  "********",
  "*bb**yy*",
  "*bb**yy*",
  "b******y"
};
