/* XPM */
static char *XPM_mauer[] = {
  "8 8 2 1",
  "  c #AA2222",
  "* c #222222",
  "********",
  "*   *   ",
  "*   *   ",
  "*   *   ",
  "********",
  "  *   * ",
  "  *   * ",
  "  *   * "
};
