/* XPM */
static char *XPM_mauer[] = {
"8 8 3 1",
"  c #882222",
"* c #442222",
"+ c #4422BB",
"        ",
" ****** ",
" *    * ",
" * ++ * ",
" * ++ * ",
" *    * ",
" ****** ",
"        "
};
